# xmcd
#
# Track frame offsets:
#	150
#	17590
#	34143
#	53772
#	73394
#	90623
#	96691
#
# Disc length: 1508 seconds
#
# Revision: 1
# Processed by: cddbd v1.5.2PL0 Copyright (c) Steve Scherf et al.
# Submitted via: audiograbber 1.83.01
#
DISCID=5e05e207
DTITLE=Cyclotron - Into A Subconscious Surreality
DYEAR=2009
DGENRE=Death Metal
TTITLE0=The infallible bleeding machine
TTITLE1=Seventh aeon curse
TTITLE2=Paint my burning skin
TTITLE3=Black stars and a voyager to dystopia
TTITLE4=Transformation complete?
TTITLE5=Infinite deadworld suffering
TTITLE6=Mutilate the stillborn
EXTD=
EXTT0=
EXTT1=
EXTT2=
EXTT3=
EXTT4=
EXTT5=
EXTT6=
PLAYORDER=
